<?xml version="1.0" encoding="utf-8"?>
<!-- Generator: Adobe Illustrator 18.1.1, SVG Export Plug-In . SVG Version: 6.00 Build 0)  -->
<svg version="1.1" id="Layer_1" xmlns="http://www.w3.org/2000/svg" xmlns:xlink="http://www.w3.org/1999/xlink" x="0px" y="0px"
	 viewBox="0 0 288 72" enable-background="new 0 0 288 72" xml:space="preserve">
<g>
	<path d="M18,31c10.4-0.4,20.8-0.6,31.2-1c2.6-0.1,5.2,0,7.8,0h7.8h15.6h62.3h31.2h7.8c2.6,0,5.2,0,7.8,0.1
		c5.2,0.2,10.4,0.7,15.6,1.4c5.2,0.7,10.3,1.5,15.4,2.5c2.6,0.5,5.1,1.1,7.6,1.7l1.9,0.4l1.9,0.4c1.3,0.3,2.5,0.6,3.8,0.8
		c1.3,0.2,2.5,0.4,3.8,0.5c1.3,0.1,2.5,0.2,3.8,0.3c2.5,0,5.1,0.2,7.6-0.1c2.5-0.2,5-0.7,7.4-1.6c2.4-0.8,4.7-2,6.6-3.6l0.1-0.1l0,0
		c0.2-0.1,0.4-0.3,0.5-0.4c0.2-0.2,0.3-0.3,0.5-0.5c0.3-0.4,0.6-0.8,0.8-1.2c0.2-0.4,0.4-0.9,0.6-1.3c0.1-0.2,0.1-0.5,0.2-0.7
		c0.1-0.2,0.1-0.5,0.2-0.7c0.1-0.5,0.2-1,0.2-1.5c0.1-0.5,0-1,0.1-1.5c0-0.5,0-1-0.1-1.5l-0.2-1.5l0.3,1.5c0.1,0.5,0.1,1,0.2,1.5
		c0,0.5,0.1,1,0,1.5c0,0.5,0,1-0.1,1.5c0,0.3-0.1,0.5-0.1,0.8c-0.1,0.2-0.1,0.5-0.2,0.7c-0.1,0.5-0.3,1-0.5,1.4
		c-0.2,0.5-0.5,0.9-0.8,1.3c-0.2,0.2-0.3,0.4-0.5,0.6c-0.2,0.2-0.4,0.4-0.6,0.6l0.1-0.1c-1.9,2-4.3,3.3-6.7,4.3
		c-2.5,1-5,1.7-7.7,2.1c-2.6,0.4-5.3,0.6-7.9,0.5c-1.3-0.1-2.6-0.2-3.9-0.3c-1.3-0.2-2.6-0.4-3.9-0.6c-1.3-0.2-2.6-0.5-3.8-0.8
		l-1.9-0.4l-1.9-0.4c-2.5-0.6-5-1.1-7.6-1.7c-5.1-1-10.2-1.8-15.3-2.5c-5.1-0.6-10.3-1.1-15.4-1.3c-2.6-0.1-5.1-0.1-7.7-0.1h-7.8
		h-31.2H80.3H64.7h-7.8c-2.6,0-5.2,0.1-7.8,0C38.8,31.6,28.4,31.4,18,31z"/>
</g>
<g>
	<path d="M213.8,33.8c0,0,0.6-0.1,1.5-0.2c0.5-0.1,1.1-0.2,1.7-0.3c0.3-0.1,0.7-0.1,1.1-0.2c0.4-0.1,0.8-0.1,1.2-0.1
		c0.8-0.1,1.7-0.3,2.6-0.4c0.9-0.2,1.9-0.4,2.9-0.7c0.5-0.2,1-0.3,1.5-0.5c0.5-0.2,1-0.4,1.5-0.6c0.5-0.3,1-0.5,1.4-0.8
		c0.4-0.3,0.9-0.6,1.3-0.9c0.4-0.4,0.8-0.7,1.1-1.1l0.5-0.6c0.1-0.2,0.3-0.5,0.4-0.7l0.4-0.7l0.3-0.7c0.2-0.5,0.4-1,0.5-1.4
		c0.2-0.5,0.2-1,0.4-1.4c0.1-0.5,0.2-1,0.2-1.4c0.1-0.9,0.1-1.8,0.1-2.6c0-0.4-0.1-0.8-0.1-1.2c0-0.4,0-0.7,0-1.1
		c0-0.7-0.1-1.3-0.1-1.7c-0.1-1-0.2-1.5-0.2-1.5s0.3,0.5,0.6,1.4c0.2,0.5,0.3,1,0.5,1.7c0.2,0.7,0.3,1.5,0.3,2.3
		c0,0.9,0,1.8-0.1,2.8c-0.1,0.5-0.1,1-0.2,1.5c-0.1,0.5-0.2,1-0.4,1.5c-0.2,0.5-0.3,1-0.6,1.6l-0.4,0.8l-0.4,0.7
		c-0.2,0.2-0.2,0.5-0.4,0.7l-0.5,0.7c-0.3,0.5-0.8,0.8-1.2,1.2c-0.4,0.4-0.9,0.7-1.4,1c-0.5,0.3-1,0.5-1.5,0.8
		c-0.5,0.2-1,0.4-1.5,0.7c-0.5,0.2-1,0.3-1.5,0.5c-1,0.3-2,0.6-3,0.7c-1,0.2-1.9,0.3-2.7,0.4c-0.4,0-0.8,0.1-1.2,0.1
		c-0.4,0-0.8,0-1.1,0c-0.7,0-1.3,0-1.8-0.1C214.4,33.8,213.8,33.8,213.8,33.8z"/>
</g>
<g>
	<path d="M235.8,38.3c0,0,0.7,0,2,0c0.6,0,1.4,0,2.3,0.1c0.9,0,1.9,0.1,2.9,0.4c1.1,0.2,2.2,0.4,3.4,0.7c1.2,0.3,2.5,0.6,3.7,1
		c0.6,0.2,1.3,0.4,1.9,0.6c0.7,0.2,1.3,0.5,2,0.7c1.3,0.5,2.6,1.1,3.9,1.8c0.6,0.4,1.3,0.7,1.9,1.1c0.6,0.4,1.2,0.8,1.8,1.2
		c0.6,0.4,1.1,0.9,1.6,1.4c0.6,0.5,1,1,1.4,1.5c0.5,0.5,0.8,1.1,1.2,1.6c0.2,0.3,0.3,0.6,0.5,0.9c0.1,0.3,0.3,0.6,0.4,0.9
		c0.4,1.2,0.5,2.6,0.2,3.7c-0.3,1.2-1,2-1.7,2.6c-0.7,0.6-1.3,1-1.9,1.3c-0.6,0.3-1,0.5-1.3,0.6c-0.3,0.1-0.5,0.2-0.5,0.2
		s0.6-0.3,1.6-1.1c0.5-0.4,1-0.9,1.6-1.5c0.1-0.2,0.2-0.3,0.4-0.5c0.1-0.2,0.2-0.4,0.3-0.6c0.1-0.2,0.2-0.4,0.3-0.6
		c0.1-0.2,0.2-0.4,0.3-0.7c0.2-0.9,0.2-2-0.2-3.1c-0.1-0.3-0.2-0.5-0.4-0.8c-0.1-0.3-0.2-0.5-0.4-0.8c-0.2-0.2-0.4-0.5-0.5-0.7
		c-0.2-0.3-0.4-0.5-0.6-0.7c-0.5-0.5-0.9-1-1.4-1.4c-0.5-0.4-1-0.9-1.5-1.3c-0.6-0.4-1.1-0.8-1.7-1.2c-0.6-0.4-1.2-0.7-1.8-1.1
		c-1.2-0.7-2.5-1.3-3.8-1.8c-0.6-0.3-1.3-0.5-1.9-0.7c-0.6-0.2-1.3-0.5-1.9-0.6c-1.3-0.4-2.5-0.7-3.7-1c-1.2-0.3-2.3-0.5-3.3-0.7
		c-0.5-0.1-1-0.2-1.5-0.3c-0.5-0.1-0.9-0.2-1.3-0.3c-0.8-0.2-1.6-0.4-2.2-0.5C236.5,38.4,235.8,38.3,235.8,38.3z"/>
</g>
<path fill="none" stroke="#000000" stroke-width="0.5" stroke-miterlimit="10" d="M229.3,30.2c-1.4-0.9-2.1-2.7-2-4.3
	c0.1-1.7,0.9-3.2,1.8-4.6"/>
<path fill="none" stroke="#000000" stroke-width="0.5" stroke-miterlimit="10" d="M253,38.1c0.6-0.2,1-0.9,1.2-1.5
	c0.1-0.7,0-1.3-0.2-2c-0.2-0.6-0.4-1.2-0.8-1.7c-0.3-0.5-0.7-0.9-1.2-1.2c-0.9-0.7-2-1.3-3.1-1.8"/>
<path fill="none" stroke="#000000" stroke-width="0.5" stroke-miterlimit="10" d="M260.4,36.1c0.5-1.6,0.6-3.4,1-5
	c0.4-1.2,0.9-2.4,1.7-3.4"/>
<path fill="none" stroke="#000000" stroke-width="0.5" stroke-miterlimit="10" d="M260.5,45.7c2.1,0.2,4.2-1.1,6.3-0.9"/>
<path fill="none" stroke="#000000" stroke-miterlimit="10" d="M244.2,24.9c0.9,0,1.8,0,2.6,0.2c0.8,0.2,1.7,0.7,2.2,1.3
	c0.8,1,1,2.3,1.2,3.6c-1.4,0.1-2.8,0.2-4-0.4c-0.6-0.3-1.1-0.7-1.5-1.2c-0.8-1.1-1.3-2.4-1.2-3.8C243.6,24.9,243.9,24.9,244.2,24.9z
	"/>
<path fill="none" stroke="#000000" stroke-miterlimit="10" d="M264,21c0.2,2,1.1,4,1,6.1c0,0.5-0.2,1.1-0.6,1.5
	c-0.4,0.3-1.2,0.3-1.4-0.2c-0.7,0.5-1.6,0.5-2.3,0c-0.6-0.5-0.9-1.4-0.7-2.2c0.2-0.7,0.8-1.2,1.4-1.7C262.5,23.5,263.4,22.3,264,21z
	"/>
<path fill="none" stroke="#000000" stroke-miterlimit="10" d="M229.1,21.9c0-0.1,0-0.2,0-0.2c-0.9,0-1.9-0.1-2.4-0.8
	c-0.5-0.7-0.2-1.7,0.2-2.5c1.2-2.1,3.5-3.6,4.4-5.9c0.2,0.8,0.4,1.6,0.6,2.4c0.2,1,0.5,2,0.5,3c0,1-0.2,2-0.8,2.8
	C231.1,21.5,230.1,22.1,229.1,21.9z"/>
<path fill="none" stroke="#000000" stroke-miterlimit="10" d="M271.8,41.3c0.9-0.2,1.8-0.6,2.5-1.2c-0.4,1.2-0.7,2.3-1.4,3.4
	c-1,1.5-3,2.9-4.9,2c-1.4-0.6-1.1-2.4,0.1-3.1C269.2,41.7,270.5,41.6,271.8,41.3z"/>
</svg>
